<svg width="25" height="25" viewBox="0 0 25 25" fill="none" xmlns="http://www.w3.org/2000/svg">
<g clip-path="url(#clip0_11_2)">
<path d="M20.7409 19.5888L20.0476 20.0513L21.6801 22.5H3.23718L5.18176 19.5833H15.768V18.75H4.95884C4.89026 18.75 4.82274 18.7669 4.76227 18.7993C4.70179 18.8316 4.65024 18.8784 4.61218 18.9354L2.11218 22.6854C2.06665 22.754 2.04231 22.8344 2.04218 22.9167V24.1667C2.04218 24.3877 2.12997 24.5996 2.28625 24.7559C2.44253 24.9122 2.65449 25 2.87551 25H22.0422C22.2632 25 22.4752 24.9122 22.6314 24.7559C22.7877 24.5996 22.8755 24.3877 22.8755 24.1667V22.9167C22.8754 22.8344 22.851 22.754 22.8055 22.6854L20.7409 19.5888ZM2.87551 24.1667V23.3333H22.0422V24.1667H2.87551Z" fill="black"/>
<path d="M20.7922 0H4.12549C3.79427 0.000989204 3.4769 0.133003 3.2427 0.367209C3.00849 0.601416 2.87648 0.918784 2.87549 1.25V12.0833C2.87648 12.4145 3.00849 12.7319 3.2427 12.9661C3.4769 13.2003 3.79427 13.3323 4.12549 13.3333H9.95882V15H8.29215C8.18165 15 8.07567 15.0439 7.99753 15.122C7.91939 15.2002 7.87549 15.3062 7.87549 15.4167V17.0833C7.87549 17.1938 7.91939 17.2998 7.99753 17.378C8.07567 17.4561 8.18165 17.5 8.29215 17.5H16.6255C16.736 17.5 16.842 17.4561 16.9201 17.378C16.9983 17.2998 17.0422 17.1938 17.0422 17.0833V15.4167C17.0422 15.3062 16.9983 15.2002 16.9201 15.122C16.842 15.0439 16.736 15 16.6255 15H14.9588V13.3333H20.7922C21.1234 13.3323 21.4407 13.2003 21.6749 12.9661C21.9092 12.7319 22.0412 12.4145 22.0422 12.0833V1.25C22.0412 0.918784 21.9092 0.601416 21.6749 0.367209C21.4407 0.133003 21.1234 0.000989204 20.7922 0V0ZM16.2088 15.8333V16.6667H8.70882V15.8333H16.2088ZM10.7922 15V13.3333H14.1255V15H10.7922ZM21.2088 12.0833C21.2088 12.1938 21.1649 12.2998 21.0868 12.378C21.0086 12.4561 20.9027 12.5 20.7922 12.5H4.12549C4.01498 12.5 3.909 12.4561 3.83086 12.378C3.75272 12.2998 3.70882 12.1938 3.70882 12.0833V10.8333H21.2088V12.0833ZM21.2088 10H3.70882V1.25C3.70882 1.13949 3.75272 1.03351 3.83086 0.955372C3.909 0.877232 4.01498 0.833333 4.12549 0.833333H20.7922C20.9027 0.833333 21.0086 0.877232 21.0868 0.955372C21.1649 1.03351 21.2088 1.13949 21.2088 1.25V10Z" fill="black"/>
<path d="M18.7089 11.25H19.5422V12.0833H18.7089V11.25Z" fill="black"/>
<path d="M8.70884 9.16663H10.3755C10.486 9.16663 10.592 9.12273 10.6701 9.04459C10.7483 8.96645 10.7922 8.86047 10.7922 8.74996V8.33329H14.1255V8.74996C14.1255 8.86047 14.1694 8.96645 14.2475 9.04459C14.3257 9.12273 14.4317 9.16663 14.5422 9.16663H16.2088C16.3193 9.16663 16.4253 9.12273 16.5035 9.04459C16.5816 8.96645 16.6255 8.86047 16.6255 8.74996V7.08329C16.6255 6.97279 16.5816 6.8668 16.5035 6.78866C16.4253 6.71052 16.3193 6.66663 16.2088 6.66663H15.7922V4.16663H16.2088C16.3193 4.16663 16.4253 4.12273 16.5035 4.04459C16.5816 3.96645 16.6255 3.86047 16.6255 3.74996V2.08329C16.6255 1.97279 16.5816 1.86681 16.5035 1.78866C16.4253 1.71052 16.3193 1.66663 16.2088 1.66663H14.5422C14.4317 1.66663 14.3257 1.71052 14.2475 1.78866C14.1694 1.86681 14.1255 1.97279 14.1255 2.08329V2.49996H10.7922V2.08329C10.7922 1.97279 10.7483 1.86681 10.6701 1.78866C10.592 1.71052 10.486 1.66663 10.3755 1.66663H8.70884C8.59834 1.66663 8.49235 1.71052 8.41421 1.78866C8.33607 1.86681 8.29218 1.97279 8.29218 2.08329V3.74996C8.29218 3.86047 8.33607 3.96645 8.41421 4.04459C8.49235 4.12273 8.59834 4.16663 8.70884 4.16663H9.12551V6.66663H8.70884C8.59834 6.66663 8.49235 6.71052 8.41421 6.78866C8.33607 6.8668 8.29218 6.97279 8.29218 7.08329V8.74996C8.29218 8.86047 8.33607 8.96645 8.41421 9.04459C8.49235 9.12273 8.59834 9.16663 8.70884 9.16663ZM15.7922 8.33329H14.9588V7.49996H15.7922V8.33329ZM14.9588 2.49996H15.7922V3.33329H14.9588V2.49996ZM9.12551 2.49996H9.95884V3.33329H9.12551V2.49996ZM9.95884 4.16663H10.3755C10.486 4.16663 10.592 4.12273 10.6701 4.04459C10.7483 3.96645 10.7922 3.86047 10.7922 3.74996V3.33329H14.1255V3.74996C14.1255 3.86047 14.1694 3.96645 14.2475 4.04459C14.3257 4.12273 14.4317 4.16663 14.5422 4.16663H14.9588V6.66663H14.5422C14.4317 6.66663 14.3257 6.71052 14.2475 6.78866C14.1694 6.8668 14.1255 6.97279 14.1255 7.08329V7.49996H10.7922V7.08329C10.7922 6.97279 10.7483 6.8668 10.6701 6.78866C10.592 6.71052 10.486 6.66663 10.3755 6.66663H9.95884V4.16663ZM9.12551 7.49996H9.95884V8.33329H9.12551V7.49996Z" fill="black"/>
<path d="M8.70886 20.8334H14.5422V21.6667H8.70886V20.8334Z" fill="black"/>
<path d="M24.0714 14.5167L22.8922 13.3375C22.8534 13.2987 22.8072 13.268 22.7564 13.2473C22.7056 13.2266 22.6512 13.2161 22.5964 13.2167C22.5421 13.2162 22.4883 13.2266 22.4382 13.2474C22.3881 13.2681 22.3427 13.2988 22.3047 13.3375L16.7047 18.9375C16.659 18.9831 16.6248 19.0387 16.6047 19.1L16.3089 19.9834C16.2851 20.0566 16.2818 20.1349 16.2994 20.2098C16.3171 20.2848 16.3549 20.3534 16.4089 20.4084L15.8214 21L16.4089 21.5875L17.0005 21C17.0387 21.0384 17.0842 21.0689 17.1343 21.0896C17.1843 21.1104 17.238 21.121 17.2922 21.1209C17.3374 21.1204 17.3823 21.1134 17.4255 21.1L18.3089 20.8042C18.3701 20.7841 18.4258 20.7499 18.4714 20.7042L24.0714 15.1042C24.149 15.0261 24.1925 14.9205 24.1925 14.8104C24.1925 14.7004 24.149 14.5948 24.0714 14.5167V14.5167ZM17.9547 20.0459L17.4089 20.225L17.1797 20L17.363 19.4542L21.4172 15.4L22.0089 15.9875L17.9547 20.0459ZM22.5964 15.4L22.0089 14.8125L22.5964 14.2209L23.188 14.8125L22.5964 15.4Z" fill="black"/>
</g>
<defs>
<clipPath id="clip0_11_2">
<rect width="25" height="25" fill="white"/>
</clipPath>
</defs>
</svg>
